{"title":"Date With An Angel (1987)-DVDRip.XviD","uid":8721818,"size":735229952,"categoryP":"video","categoryS":"movies","magnet":"?xt=urn:btih:a6655a60f4f4acee404ce9e7e10d4282006f4e5e&amp;dn=Date+With+An+Angel+%281987%29-DVDRip.XviD&amp;tr=udp%3A%2F%2Ftracker.openbittorrent.com%3A80&amp;tr=udp%3A%2F%2Fopen.demonii.com%3A1337&amp;tr=udp%3A%2F%2Ftracker.coppersurfer.tk%3A6969&amp;tr=udp%3A%2F%2Fexodus.desync.com%3A6969","seeders":2,"leechers":0,"uploader":null,"files":1,"time":1374434100,"description":"Date With An Angel (1987)-DVDRip.XviD-Shuangye\n\nFormat : AVI\nFormat/Info : Audio Video Interleave\nFile size: 701 MiB\nDuration  : 1h 45mn\nOverall bit rate mode : Variable\nOverall bit rate : 931 Kbps\nWriting application : Nandub v1.0rc2\nWriting library : Nandub build 1852/release\n\nVideo\nID   : 0\nFormat : MPEG-4 Visual\nFormat profile  : Simple@L3\nFormat settings, BVOP : 2\nFormat settings, QPel  : No\nFormat settings, GMC  : No warppoints\nFormat settings, Matrix : Default (H.263)\nCodec ID  : XVID\nCodec ID/Hint : XviD\nDuration : 1h 45mn\nBit rate : 817 Kbps\nWidth : 640 pixels\nHeight  : 272 pixels\nDisplay aspect ratio : 2.35:1\nFrame rate  : 23.976 fps\nColor space: YUV\nChroma subsampling : 4:2:0\nBit depth  : 8 bits\nScan type : Progressive\nCompression mode : Lossy\nBits/(Pixel*Frame)  : 0.196\nStream size  : 615 MiB (88%)\nWriting library   : XviD 0.0.09 (UTC 2003-03-25)\n\nAudio\nID   : 1\nFormat   : MPEG Audio\nFormat version: Version 1\nFormat profile : Layer 3\nMode  : Joint stereo\nMode extension  : MS Stereo\nCodec ID   : 55\nCodec ID/Hint : MP3\nDuration  :1h 45mn\nBit rate mode : Variable\nBit rate : 101 Kbps\nNominal bit rate: 112 Kbps\nChannel(s)  : 2 channels\nSampling rate : 44.1 KHz\nCompression mode : Lossy\nStream size  : 76.4 MiB (11%)\nAlignment  : Aligned on interleaves\nInterleave, duration : 26 ms (0.63 video frame)\nInterleave, preload duration : 543 ms\nWriting library : LAME3.93 \nEncoding settings  : -m j -V 0 -q 2 -lowpass 13.7 --abr 112\n","torrent":{"xt":"urn:btih:a6655a60f4f4acee404ce9e7e10d4282006f4e5e","amp;dn":"Date+With+An+Angel+%281987%29-DVDRip.XviD","amp;tr":["udp%3A%2F%2Ftracker.openbittorrent.com%3A80","udp%3A%2F%2Fopen.demonii.com%3A1337","udp%3A%2F%2Ftracker.coppersurfer.tk%3A6969","udp%3A%2F%2Fexodus.desync.com%3A6969"],"infoHash":"a6655a60f4f4acee404ce9e7e10d4282006f4e5e","infoHashBuffer":{"type":"Buffer","data":[166,101,90,96,244,244,172,238,64,76,233,231,225,13,66,130,0,111,78,94]},"announce":[],"urlList":[]}}